<svg xmlns="http://www.w3.org/2000/svg" viewBox="0 0 64 64" fill="none">
  <ellipse cx="32" cy="38" rx="22" ry="20" fill="hsl(333 71% 50%)"/>
  <ellipse cx="32" cy="44" rx="14" ry="12" fill="hsl(327 73% 97%)" opacity="0.9"/>
  <path d="M14 20 L20 28 L12 28 Z" fill="hsl(333 71% 50%)"/>
  <path d="M50 20 L44 28 L52 28 Z" fill="hsl(333 71% 50%)"/>
  <circle cx="22" cy="32" r="10" fill="hsl(0 0% 98%)"/>
  <circle cx="42" cy="32" r="10" fill="hsl(0 0% 98%)"/>
  <circle cx="22" cy="32" r="10" stroke="hsl(240 5% 10%)" stroke-width="2.5" fill="none"/>
  <circle cx="42" cy="32" r="10" stroke="hsl(240 5% 10%)" stroke-width="2.5" fill="none"/>
  <line x1="32" y1="30" x2="32" y2="34" stroke="hsl(240 5% 10%)" stroke-width="2.5"/>
  <line x1="12" y1="30" x2="6" y2="28" stroke="hsl(240 5% 10%)" stroke-width="2.5" stroke-linecap="round"/>
  <line x1="52" y1="30" x2="58" y2="28" stroke="hsl(240 5% 10%)" stroke-width="2.5" stroke-linecap="round"/>
  <circle cx="24" cy="33" r="4" fill="hsl(240 5% 10%)"/>
  <circle cx="44" cy="33" r="4" fill="hsl(240 5% 10%)"/>
  <circle cx="25" cy="31" r="1.5" fill="hsl(0 0% 98%)"/>
  <circle cx="45" cy="31" r="1.5" fill="hsl(0 0% 98%)"/>
  <path d="M32 42 L28 48 L32 52 L36 48 Z" fill="hsl(349 89% 60%)"/>
  <ellipse cx="26" cy="58" rx="4" ry="2" fill="hsl(349 89% 60%)"/>
  <ellipse cx="38" cy="58" rx="4" ry="2" fill="hsl(349 89% 60%)"/>
</svg>
